<svg width="14" height="14" viewBox="0 0 14 14" fill="none" xmlns="http://www.w3.org/2000/svg">
<g id="radio_button_checked_24px">
<path id="icon/toggle/radio_button_checked_24px" fill-rule="evenodd" clip-rule="evenodd" d="M6.99984 1.16666C3.77984 1.16666 1.1665 3.77999 1.1665 6.99999C1.1665 10.22 3.77984 12.8333 6.99984 12.8333C10.2198 12.8333 12.8332 10.22 12.8332 6.99999C12.8332 3.77999 10.2198 1.16666 6.99984 1.16666ZM6.99984 11.6667C4.4215 11.6667 2.33317 9.57832 2.33317 6.99999C2.33317 4.42166 4.4215 2.33332 6.99984 2.33332C9.57817 2.33332 11.6665 4.42166 11.6665 6.99999C11.6665 9.57832 9.57817 11.6667 6.99984 11.6667ZM4.08317 6.99999C4.08317 5.38916 5.38901 4.08332 6.99984 4.08332C8.61067 4.08332 9.9165 5.38916 9.9165 6.99999C9.9165 8.61082 8.61067 9.91666 6.99984 9.91666C5.38901 9.91666 4.08317 8.61082 4.08317 6.99999Z" fill="#F2F2F2"/>
</g>
</svg>
